<!-- Generated by graphviz version 2.26.0 (20091210.2329)
 --><!-- Title: GG Pages: 1 --><svg xmlns="http://www.w3.org/2000/svg" xmlns:xlink="http://www.w3.org/1999/xlink" width="8200pt" height="188pt" viewBox="0.00 0.00 8200.00 188.00">
<g id="graph1" class="graph" transform="scale(1 1) rotate(0) translate(4 184)">
<title>GG</title>
<polygon fill="white" stroke="white" points="-4,5 -4,-184 8197,-184 8197,5 -4,5"/>
<!-- node83 -->
<g id="node1" class="node"><title>node83</title>
<ellipse fill="none" stroke="black" cx="186" cy="-90" rx="185.988" ry="18"/>
<text text-anchor="middle" x="186" y="-87.2" font-family="Times Roman,serif" font-size="12.00">/usr/lib/jvm/java-openjdk/jre/lib/amd64/server/libjvm.so</text>
</g>
<!-- node84 -->
<g id="node2" class="node"><title>node84</title>
<ellipse fill="none" stroke="black" cx="5836" cy="-18" rx="93.244" ry="18"/>
<text text-anchor="middle" x="5836" y="-15.2" font-family="Times Roman,serif" font-size="12.00">/usr/lib64/libMagick++.so</text>
</g>
<!-- node85 -->
<g id="node3" class="node"><title>node85</title>
<ellipse fill="none" stroke="black" cx="6047" cy="-18" rx="99.9522" ry="18"/>
<text text-anchor="middle" x="6047" y="-15.2" font-family="Times Roman,serif" font-size="12.00">/usr/lib64/libMagickCore.so</text>
</g>
<!-- node86 -->
<g id="node4" class="node"><title>node86</title>
<ellipse fill="none" stroke="black" cx="6268" cy="-18" rx="102.807" ry="18"/>
<text text-anchor="middle" x="6268" y="-15.2" font-family="Times Roman,serif" font-size="12.00">/usr/lib64/libMagickWand.so</text>
</g>
<!-- node104 -->
<g id="node5" class="node"><title>node104</title>
<ellipse fill="none" stroke="black" cx="7659" cy="-90" rx="122.931" ry="18"/>
<text text-anchor="middle" x="7659" y="-87.2" font-family="Times Roman,serif" font-size="12.00">/usr/lib64/libboost_filesystem-mt.so</text>
</g>
<!-- node105 -->
<g id="node6" class="node"><title>node105</title>
<ellipse fill="none" stroke="black" cx="7913" cy="-90" rx="112.869" ry="18"/>
<text text-anchor="middle" x="7913" y="-87.2" font-family="Times Roman,serif" font-size="12.00">/usr/lib64/libboost_system-mt.so</text>
</g>
<!-- node89 -->
<g id="node7" class="node"><title>node89</title>
<ellipse fill="none" stroke="black" cx="6604" cy="-90" rx="69.7653" ry="18"/>
<text text-anchor="middle" x="6604" y="-87.2" font-family="Times Roman,serif" font-size="12.00">/usr/lib64/libcdt.so</text>
</g>
<!-- node96 -->
<g id="node8" class="node"><title>node96</title>
<ellipse fill="none" stroke="black" cx="3543" cy="-18" rx="71.7778" ry="18"/>
<text text-anchor="middle" x="3543" y="-15.2" font-family="Times Roman,serif" font-size="12.00">/usr/lib64/libcurl.so</text>
</g>
<!-- node91 -->
<g id="node9" class="node"><title>node91</title>
<ellipse fill="none" stroke="black" cx="6769" cy="-90" rx="77.1443" ry="18"/>
<text text-anchor="middle" x="6769" y="-87.2" font-family="Times Roman,serif" font-size="12.00">/usr/lib64/libexpat.so</text>
</g>
<!-- node87 -->
<g id="node10" class="node"><title>node87</title>
<ellipse fill="none" stroke="black" cx="6942" cy="-90" rx="77.8152" ry="18"/>
<text text-anchor="middle" x="6942" y="-87.2" font-family="Times Roman,serif" font-size="12.00">/usr/lib64/libgraph.so</text>
</g>
<!-- node88 -->
<g id="node11" class="node"><title>node88</title>
<ellipse fill="none" stroke="black" cx="7110" cy="-90" rx="71.7778" ry="18"/>
<text text-anchor="middle" x="7110" y="-87.2" font-family="Times Roman,serif" font-size="12.00">/usr/lib64/libgvc.so</text>
</g>
<!-- node99 -->
<g id="node12" class="node"><title>node99</title>
<ellipse fill="none" stroke="black" cx="3715" cy="-18" rx="82.0108" ry="18"/>
<text text-anchor="middle" x="3715" y="-15.2" font-family="Times Roman,serif" font-size="12.00">/usr/lib64/libicudata.so</text>
</g>
<!-- node98 -->
<g id="node13" class="node"><title>node98</title>
<ellipse fill="none" stroke="black" cx="3899" cy="-18" rx="83.8525" ry="18"/>
<text text-anchor="middle" x="3899" y="-15.2" font-family="Times Roman,serif" font-size="12.00">/usr/lib64/libicui18n.so</text>
</g>
<!-- node97 -->
<g id="node14" class="node"><title>node97</title>
<ellipse fill="none" stroke="black" cx="4078" cy="-18" rx="77.1443" ry="18"/>
<text text-anchor="middle" x="4078" y="-15.2" font-family="Times Roman,serif" font-size="12.00">/usr/lib64/libicuuc.so</text>
</g>
<!-- node90 -->
<g id="node15" class="node"><title>node90</title>
<ellipse fill="none" stroke="black" cx="7287" cy="-90" rx="87.2067" ry="18"/>
<text text-anchor="middle" x="7287" y="-87.2" font-family="Times Roman,serif" font-size="12.00">/usr/lib64/libpathplan.so</text>
</g>
<!-- node102 -->
<g id="node16" class="node"><title>node102</title>
<ellipse fill="none" stroke="black" cx="482" cy="-90" rx="91.9024" ry="18"/>
<text text-anchor="middle" x="482" y="-87.2" font-family="Times Roman,serif" font-size="12.00">/usr/lib64/libpython2.7.so</text>
</g>
<!-- node103 -->
<g id="node17" class="node"><title>node103</title>
<ellipse fill="none" stroke="black" cx="8118" cy="-90" rx="73.9613" ry="18"/>
<text text-anchor="middle" x="8118" y="-87.2" font-family="Times Roman,serif" font-size="12.00">/usr/lib64/libruby.so</text>
</g>
<!-- node93 -->
<g id="node18" class="node"><title>node93</title>
<ellipse fill="none" stroke="black" cx="673" cy="-90" rx="71.7778" ry="18"/>
<text text-anchor="middle" x="673" y="-87.2" font-family="Times Roman,serif" font-size="12.00">/usr/lib64/libtidy.so</text>
</g>
<!-- node101 -->
<g id="node19" class="node"><title>node101</title>
<ellipse fill="none" stroke="black" cx="4259" cy="-18" rx="85.865" ry="18"/>
<text text-anchor="middle" x="4259" y="-15.2" font-family="Times Roman,serif" font-size="12.00">/usr/lib64/libxerces-c.so</text>
</g>
<!-- node100 -->
<g id="node20" class="node"><title>node100</title>
<ellipse fill="none" stroke="black" cx="4439" cy="-18" rx="75.8027" ry="18"/>
<text text-anchor="middle" x="4439" y="-15.2" font-family="Times Roman,serif" font-size="12.00">/usr/lib64/libxml2.so</text>
</g>
<!-- node92 -->
<g id="node21" class="node"><title>node92</title>
<ellipse fill="none" stroke="black" cx="7455" cy="-90" rx="63.2261" ry="18"/>
<text text-anchor="middle" x="7455" y="-87.2" font-family="Times Roman,serif" font-size="12.00">/usr/lib64/libz.so</text>
</g>
<!-- node59 -->
<g id="node22" class="node"><title>node59</title>
<polygon fill="none" stroke="black" points="924.079,-167.562 874,-180 823.921,-167.562 823.968,-147.438 924.032,-147.438 924.079,-167.562"/>
<text text-anchor="middle" x="874" y="-159.2" font-family="Times Roman,serif" font-size="12.00">APITests</text>
</g>
<!-- node51 -->
<g id="node62" class="node"><title>node51</title>
<polygon fill="none" stroke="black" points="3858,-108 3756,-108 3756,-72 3858,-72 3858,-108"/>
<text text-anchor="middle" x="3807" y="-87.2" font-family="Times Roman,serif" font-size="12.00">zorba_simplestore</text>
</g>
<!-- node59&#45;&gt;node51 -->
<g id="edge132" class="edge"><title>node59-&gt;node51</title>
<path fill="none" stroke="black" d="M916.854,-147.423C922.238,-146.038 927.712,-144.84 933,-144 1219.41,-98.5276 3355.13,-91.1121 3745.75,-90.1325"/>
<polygon fill="black" stroke="black" points="3746,-93.632 3755.99,-90.1073 3745.99,-86.632 3746,-93.632"/>
</g>
<!-- node65 -->
<g id="node23" class="node"><title>node65</title>
<polygon fill="none" stroke="black" points="1089.8,-167.562 1016,-180 942.203,-167.562 942.272,-147.438 1089.73,-147.438 1089.8,-167.562"/>
<text text-anchor="middle" x="1016" y="-159.2" font-family="Times Roman,serif" font-size="12.00">DebuggerTests</text>
</g>
<!-- node65&#45;&gt;node51 -->
<g id="edge148" class="edge"><title>node65-&gt;node51</title>
<path fill="none" stroke="black" d="M1076.97,-147.377C1084.35,-146.02 1091.82,-144.842 1099,-144 1369.53,-112.271 3368.75,-93.7408 3745.77,-90.5094"/>
<polygon fill="black" stroke="black" points="3745.96,-94.008 3755.93,-90.4227 3745.9,-87.0083 3745.96,-94.008"/>
</g>
<!-- node63 -->
<g id="node24" class="node"><title>node63</title>
<polygon fill="none" stroke="black" points="1229.86,-167.562 1169,-180 1108.14,-167.562 1108.2,-147.438 1229.8,-147.438 1229.86,-167.562"/>
<text text-anchor="middle" x="1169" y="-159.2" font-family="Times Roman,serif" font-size="12.00">LibUnitTest</text>
</g>
<!-- node63&#45;&gt;node51 -->
<g id="edge144" class="edge"><title>node63-&gt;node51</title>
<path fill="none" stroke="black" d="M1220.34,-147.365C1226.58,-146.011 1232.91,-144.836 1239,-144 1494.17,-108.989 3380.23,-93.1906 3745.75,-90.4418"/>
<polygon fill="black" stroke="black" points="3745.89,-93.9409 3755.87,-90.3661 3745.84,-86.9411 3745.89,-93.9409"/>
</g>
<!-- node64 -->
<g id="node25" class="node"><title>node64</title>
<polygon fill="none" stroke="black" points="1349.91,-167.562 1299,-180 1248.09,-167.562 1248.14,-147.438 1349.86,-147.438 1349.91,-167.562"/>
<text text-anchor="middle" x="1299" y="-159.2" font-family="Times Roman,serif" font-size="12.00">UnitTests</text>
</g>
<!-- node64&#45;&gt;node51 -->
<g id="edge146" class="edge"><title>node64-&gt;node51</title>
<path fill="none" stroke="black" d="M1342.92,-147.358C1348.29,-146.005 1353.74,-144.832 1359,-144 1600.87,-105.771 3390.49,-92.613 3745.78,-90.3648"/>
<polygon fill="black" stroke="black" points="3745.89,-93.8642 3755.87,-90.3014 3745.85,-86.8644 3745.89,-93.8642"/>
</g>
<!-- node52 -->
<g id="node26" class="node"><title>node52</title>
<polygon fill="none" stroke="black" points="522.1,-154.544 522.1,-169.456 492.752,-180 451.248,-180 421.9,-169.456 421.9,-154.544 451.248,-144 492.752,-144 522.1,-154.544"/>
<text text-anchor="middle" x="472" y="-159.2" font-family="Times Roman,serif" font-size="12.00">_zorba_api</text>
</g>
<!-- node52&#45;&gt;node102 -->
<g id="edge118" class="edge"><title>node52-&gt;node102</title>
<path fill="none" stroke="black" d="M474.523,-143.831C475.593,-136.131 476.865,-126.974 478.053,-118.417"/>
<polygon fill="black" stroke="black" points="481.534,-118.8 479.443,-108.413 474.6,-117.837 481.534,-118.8"/>
</g>
<!-- node52&#45;&gt;node51 -->
<g id="edge116" class="edge"><title>node52-&gt;node51</title>
<path fill="none" stroke="black" d="M507.82,-149.331C515.384,-147.149 523.383,-145.2 531,-144 695.771,-118.035 3309.61,-94.3107 3745.57,-90.5249"/>
<polygon fill="black" stroke="black" points="3745.79,-94.0232 3755.76,-90.4366 3745.73,-87.0235 3745.79,-94.0232"/>
</g>
<!-- node57 -->
<g id="node27" class="node"><title>node57</title>
<polygon fill="none" stroke="black" points="1445.97,-167.562 1407,-180 1368.03,-167.562 1368.06,-147.438 1445.94,-147.438 1445.97,-167.562"/>
<text text-anchor="middle" x="1407" y="-159.2" font-family="Times Roman,serif" font-size="12.00">apitest</text>
</g>
<!-- node57&#45;&gt;node51 -->
<g id="edge128" class="edge"><title>node57-&gt;node51</title>
<path fill="none" stroke="black" d="M1441.73,-147.432C1446.14,-146.045 1450.63,-144.844 1455,-144 1685.45,-99.4733 3398.31,-91.3715 3745.66,-90.1813"/>
<polygon fill="black" stroke="black" points="3745.79,-93.681 3755.78,-90.1473 3745.77,-86.681 3745.79,-93.681"/>
</g>
<!-- node76 -->
<g id="node28" class="node"><title>node76</title>
<polygon fill="none" stroke="black" points="1572.22,-167.562 1518,-180 1463.78,-167.562 1463.83,-147.438 1572.17,-147.438 1572.22,-167.562"/>
<text text-anchor="middle" x="1518" y="-159.2" font-family="Times Roman,serif" font-size="12.00">cexamples</text>
</g>
<!-- node76&#45;&gt;node51 -->
<g id="edge158" class="edge"><title>node76-&gt;node51</title>
<path fill="none" stroke="black" d="M1564.15,-147.374C1569.78,-146.018 1575.49,-144.84 1581,-144 1799.91,-110.63 3410.14,-93.7362 3745.8,-90.5571"/>
<polygon fill="black" stroke="black" points="3745.85,-94.0568 3755.82,-90.4627 3745.78,-87.0571 3745.85,-94.0568"/>
</g>
<!-- node49 -->
<g id="node29" class="node"><title>node49</title>
<polygon fill="none" stroke="black" points="806,-180 540,-180 540,-144 806,-144 806,-180"/>
<text text-anchor="middle" x="673" y="-159.2" font-family="Times Roman,serif" font-size="12.00">com_zorba-xquery_www_modules_convertors_html</text>
</g>
<!-- node49&#45;&gt;node93 -->
<g id="edge94" class="edge"><title>node49-&gt;node93</title>
<path fill="none" stroke="black" d="M673,-143.831C673,-136.131 673,-126.974 673,-118.417"/>
<polygon fill="black" stroke="black" points="676.5,-118.413 673,-108.413 669.5,-118.413 676.5,-118.413"/>
</g>
<!-- node49&#45;&gt;node51 -->
<g id="edge92" class="edge"><title>node49-&gt;node51</title>
<path fill="none" stroke="black" d="M806.366,-144.669C809.269,-144.429 812.15,-144.206 815,-144 1414.36,-100.731 3373.7,-91.5665 3745.71,-90.2023"/>
<polygon fill="black" stroke="black" points="3745.76,-93.7022 3755.75,-90.166 3745.73,-86.7023 3745.76,-93.7022"/>
</g>
<!-- node30 -->
<g id="node30" class="node"><title>node30</title>
<polygon fill="none" stroke="black" points="1796,-180 1590,-180 1590,-144 1796,-144 1796,-180"/>
<text text-anchor="middle" x="1693" y="-159.2" font-family="Times Roman,serif" font-size="12.00">com_zorba-xquery_www_modules_csv</text>
</g>
<!-- node30&#45;&gt;node51 -->
<g id="edge2" class="edge"><title>node30-&gt;node51</title>
<path fill="none" stroke="black" d="M1796.07,-144.909C1799.08,-144.579 1802.06,-144.275 1805,-144 2195.48,-107.518 3452.36,-93.4001 3745.48,-90.5606"/>
<polygon fill="black" stroke="black" points="3745.94,-94.0565 3755.9,-90.4605 3745.87,-87.0568 3745.94,-94.0565"/>
</g>
<!-- node31 -->
<g id="node31" class="node"><title>node31</title>
<polygon fill="none" stroke="black" points="2044,-180 1814,-180 1814,-144 2044,-144 2044,-180"/>
<text text-anchor="middle" x="1929" y="-159.2" font-family="Times Roman,serif" font-size="12.00">com_zorba-xquery_www_modules_datetime</text>
</g>
<!-- node31&#45;&gt;node51 -->
<g id="edge4" class="edge"><title>node31-&gt;node51</title>
<path fill="none" stroke="black" d="M2044.13,-144.835C2047.11,-144.536 2050.07,-144.257 2053,-144 2391.99,-114.274 3474.97,-95.308 3745.37,-90.9584"/>
<polygon fill="black" stroke="black" points="3745.83,-94.4516 3755.77,-90.7919 3745.72,-87.4525 3745.83,-94.4516"/>
</g>
<!-- node32 -->
<g id="node32" class="node"><title>node32</title>
<polygon fill="none" stroke="black" points="2268,-180 2062,-180 2062,-144 2268,-144 2268,-180"/>
<text text-anchor="middle" x="2165" y="-159.2" font-family="Times Roman,serif" font-size="12.00">com_zorba-xquery_www_modules_file</text>
</g>
<!-- node32&#45;&gt;node51 -->
<g id="edge6" class="edge"><title>node32-&gt;node51</title>
<path fill="none" stroke="black" d="M2268.07,-144.941C2271.08,-144.602 2274.06,-144.287 2277,-144 2569.41,-115.454 3497.79,-95.9402 3745.67,-91.147"/>
<polygon fill="black" stroke="black" points="3745.99,-94.6415 3755.92,-90.9496 3745.86,-87.6428 3745.99,-94.6415"/>
</g>
<!-- node33 -->
<g id="node33" class="node"><title>node33</title>
<polygon fill="none" stroke="black" points="2524,-180 2286,-180 2286,-144 2524,-144 2524,-180"/>
<text text-anchor="middle" x="2405" y="-159.2" font-family="Times Roman,serif" font-size="12.00">com_zorba-xquery_www_modules_http-client</text>
</g>
<!-- node33&#45;&gt;node51 -->
<g id="edge8" class="edge"><title>node33-&gt;node51</title>
<path fill="none" stroke="black" d="M2524.19,-144.851C2527.15,-144.55 2530.09,-144.265 2533,-144 2998.2,-101.533 3562.07,-92.3859 3745.89,-90.4824"/>
<polygon fill="black" stroke="black" points="3745.94,-93.9822 3755.91,-90.382 3745.87,-86.9825 3745.94,-93.9822"/>
</g>
<!-- node42 -->
<g id="node34" class="node"><title>node42</title>
<polygon fill="none" stroke="black" points="5822,-180 5550,-180 5550,-144 5822,-144 5822,-180"/>
<text text-anchor="middle" x="5686" y="-159.2" font-family="Times Roman,serif" font-size="12.00">com_zorba-xquery_www_modules_image_animation</text>
</g>
<!-- node42&#45;&gt;node84 -->
<g id="edge32" class="edge"><title>node42-&gt;node84</title>
<path fill="none" stroke="black" d="M5688.66,-143.986C5692.44,-124.131 5701.14,-92.322 5720,-72 5734.48,-56.3989 5754.37,-44.9113 5773.6,-36.6437"/>
<polygon fill="black" stroke="black" points="5775.01,-39.8482 5782.95,-32.8398 5772.37,-33.3636 5775.01,-39.8482"/>
</g>
<!-- node42&#45;&gt;node85 -->
<g id="edge34" class="edge"><title>node42-&gt;node85</title>
<path fill="none" stroke="black" d="M5702.82,-143.783C5722.95,-123.126 5758.65,-89.9868 5796,-72 5825.05,-58.0076 5901.45,-42.5814 5962.39,-31.8123"/>
<polygon fill="black" stroke="black" points="5963.17,-35.2297 5972.41,-30.0581 5961.96,-28.3345 5963.17,-35.2297"/>
</g>
<!-- node42&#45;&gt;node86 -->
<g id="edge36" class="edge"><title>node42-&gt;node86</title>
<path fill="none" stroke="black" d="M5728.06,-143.891C5776.6,-123.648 5859.24,-91.1978 5933,-72 5933.76,-71.8016 6083.19,-47.7399 6182.19,-31.8064"/>
<polygon fill="black" stroke="black" points="6182.89,-35.2393 6192.21,-30.1948 6181.78,-28.3283 6182.89,-35.2393"/>
</g>
<!-- node48 -->
<g id="node49" class="node"><title>node48</title>
<polygon fill="none" stroke="black" points="6034,-108 5941.98,-90 6034,-72 6126.02,-90 6034,-108"/>
<text text-anchor="middle" x="6034" y="-87.2" font-family="Times Roman,serif" font-size="12.00">image_commons</text>
</g>
<!-- node42&#45;&gt;node48 -->
<g id="edge30" class="edge"><title>node42-&gt;node48</title>
<path fill="none" stroke="black" d="M5773.37,-143.924C5838,-130.552 5924.04,-112.75 5979.24,-101.329"/>
<polygon fill="black" stroke="black" points="5980.09,-104.727 5989.18,-99.2738 5978.67,-97.8725 5980.09,-104.727"/>
</g>
<!-- node42&#45;&gt;node51 -->
<g id="edge28" class="edge"><title>node42-&gt;node51</title>
<path fill="none" stroke="black" d="M5549.81,-144.722C5546.85,-144.467 5543.91,-144.225 5541,-144 5205.78,-118.029 4136.35,-96.2849 3868.36,-91.149"/>
<polygon fill="black" stroke="black" points="3868.11,-87.6438 3858.05,-90.952 3867.98,-94.6425 3868.11,-87.6438"/>
</g>
<!-- node43 -->
<g id="node35" class="node"><title>node43</title>
<polygon fill="none" stroke="black" points="6392,-180 6144,-180 6144,-144 6392,-144 6392,-180"/>
<text text-anchor="middle" x="6268" y="-159.2" font-family="Times Roman,serif" font-size="12.00">com_zorba-xquery_www_modules_image_basic</text>
</g>
<!-- node43&#45;&gt;node84 -->
<g id="edge44" class="edge"><title>node43-&gt;node84</title>
<path fill="none" stroke="black" d="M6247.03,-143.67C6222.1,-122.907 6178.38,-89.6685 6135,-72 6132.41,-70.9462 6002.22,-47.6233 5914.5,-31.9769"/>
<polygon fill="black" stroke="black" points="5915.02,-28.5138 5904.56,-30.2038 5913.79,-35.4051 5915.02,-28.5138"/>
</g>
<!-- node43&#45;&gt;node85 -->
<g id="edge46" class="edge"><title>node43-&gt;node85</title>
<path fill="none" stroke="black" d="M6259.89,-143.86C6249.96,-123.589 6231.27,-91.1125 6206,-72 6182.6,-54.303 6153.02,-42.1747 6125.75,-33.9717"/>
<polygon fill="black" stroke="black" points="6126.39,-30.5163 6115.81,-31.1241 6124.46,-37.2451 6126.39,-30.5163"/>
</g>
<!-- node43&#45;&gt;node86 -->
<g id="edge48" class="edge"><title>node43-&gt;node86</title>
<path fill="none" stroke="black" d="M6268,-143.762C6268,-119.201 6268,-75.2474 6268,-46.3541"/>
<polygon fill="black" stroke="black" points="6271.5,-46.0896 6268,-36.0896 6264.5,-46.0897 6271.5,-46.0896"/>
</g>
<!-- node47 -->
<g id="node48" class="node"><title>node47</title>
<polygon fill="none" stroke="black" points="6349,-108 6295.87,-90 6349,-72 6402.13,-90 6349,-108"/>
<text text-anchor="middle" x="6349" y="-87.2" font-family="Times Roman,serif" font-size="12.00">image_c</text>
</g>
<!-- node43&#45;&gt;node47 -->
<g id="edge40" class="edge"><title>node43-&gt;node47</title>
<path fill="none" stroke="black" d="M6288.44,-143.831C6300.02,-133.542 6314.52,-120.652 6326.43,-110.065"/>
<polygon fill="black" stroke="black" points="6329.04,-112.424 6334.19,-103.164 6324.39,-107.192 6329.04,-112.424"/>
</g>
<!-- node43&#45;&gt;node48 -->
<g id="edge42" class="edge"><title>node43-&gt;node48</title>
<path fill="none" stroke="black" d="M6209.25,-143.924C6169.16,-131.588 6116.81,-115.481 6079.8,-104.093"/>
<polygon fill="black" stroke="black" points="6080.38,-100.609 6069.79,-101.013 6078.32,-107.299 6080.38,-100.609"/>
</g>
<!-- node43&#45;&gt;node51 -->
<g id="edge38" class="edge"><title>node43-&gt;node51</title>
<path fill="none" stroke="black" d="M6143.8,-144.747C6140.84,-144.479 6137.9,-144.229 6135,-144 5675.76,-107.711 4189.2,-93.2374 3868.39,-90.4973"/>
<polygon fill="black" stroke="black" points="3868.38,-86.9972 3858.35,-90.4122 3868.32,-93.997 3868.38,-86.9972"/>
</g>
<!-- node44 -->
<g id="node36" class="node"><title>node44</title>
<polygon fill="none" stroke="black" points="7075,-180 6809,-180 6809,-144 7075,-144 7075,-180"/>
<text text-anchor="middle" x="6942" y="-159.2" font-family="Times Roman,serif" font-size="12.00">com_zorba-xquery_www_modules_image_graphviz</text>
</g>
<!-- node44&#45;&gt;node89 -->
<g id="edge56" class="edge"><title>node44-&gt;node89</title>
<path fill="none" stroke="black" d="M6853.51,-143.971C6803.42,-133.662 6739.66,-120.36 6683,-108 6677.59,-106.819 6671.97,-105.576 6666.34,-104.318"/>
<polygon fill="black" stroke="black" points="6666.76,-100.824 6656.24,-102.045 6665.23,-107.654 6666.76,-100.824"/>
</g>
<!-- node44&#45;&gt;node91 -->
<g id="edge60" class="edge"><title>node44-&gt;node91</title>
<path fill="none" stroke="black" d="M6898.34,-143.831C6873.31,-133.414 6841.88,-120.332 6816.27,-109.673"/>
<polygon fill="black" stroke="black" points="6817.34,-106.328 6806.77,-105.717 6814.65,-112.791 6817.34,-106.328"/>
</g>
<!-- node44&#45;&gt;node87 -->
<g id="edge52" class="edge"><title>node44-&gt;node87</title>
<path fill="none" stroke="black" d="M6942,-143.831C6942,-136.131 6942,-126.974 6942,-118.417"/>
<polygon fill="black" stroke="black" points="6945.5,-118.413 6942,-108.413 6938.5,-118.413 6945.5,-118.413"/>
</g>
<!-- node44&#45;&gt;node88 -->
<g id="edge54" class="edge"><title>node44-&gt;node88</title>
<path fill="none" stroke="black" d="M6984.39,-143.831C7008.79,-133.377 7039.44,-120.24 7064.36,-109.56"/>
<polygon fill="black" stroke="black" points="7065.79,-112.754 7073.6,-105.598 7063.03,-106.32 7065.79,-112.754"/>
</g>
<!-- node44&#45;&gt;node90 -->
<g id="edge58" class="edge"><title>node44-&gt;node90</title>
<path fill="none" stroke="black" d="M7028.61,-143.924C7086.39,-131.866 7161.44,-116.205 7215.75,-104.87"/>
<polygon fill="black" stroke="black" points="7216.57,-108.275 7225.64,-102.805 7215.14,-101.422 7216.57,-108.275"/>
</g>
<!-- node44&#45;&gt;node92 -->
<g id="edge62" class="edge"><title>node44-&gt;node92</title>
<path fill="none" stroke="black" d="M7075.32,-149.991C7163.14,-141.022 7280.43,-127.027 7383,-108 7388.3,-107.016 7393.8,-105.872 7399.28,-104.647"/>
<polygon fill="black" stroke="black" points="7400.14,-108.041 7409.09,-102.372 7398.56,-101.222 7400.14,-108.041"/>
</g>
<!-- node44&#45;&gt;node51 -->
<g id="edge50" class="edge"><title>node44-&gt;node51</title>
<path fill="none" stroke="black" d="M6808.84,-152.032C6763.82,-148.996 6713.25,-145.949 6667,-144 5544.69,-96.7 4172.88,-90.8282 3868.64,-90.102"/>
<polygon fill="black" stroke="black" points="3868.28,-86.6013 3858.27,-90.0783 3868.27,-93.6013 3868.28,-86.6013"/>
</g>
<!-- node45 -->
<g id="node37" class="node"><title>node45</title>
<polygon fill="none" stroke="black" points="6126,-180 5840,-180 5840,-144 6126,-144 6126,-180"/>
<text text-anchor="middle" x="5983" y="-159.2" font-family="Times Roman,serif" font-size="12.00">com_zorba-xquery_www_modules_image_manipulation</text>
</g>
<!-- node45&#45;&gt;node84 -->
<g id="edge68" class="edge"><title>node45-&gt;node84</title>
<path fill="none" stroke="black" d="M5962.54,-143.779C5951.06,-133.437 5936.57,-120.166 5924,-108 5901.88,-86.5934 5877.45,-61.4926 5859.96,-43.2458"/>
<polygon fill="black" stroke="black" points="5862.36,-40.6859 5852.92,-35.8761 5857.3,-45.5231 5862.36,-40.6859"/>
</g>
<!-- node45&#45;&gt;node85 -->
<g id="edge70" class="edge"><title>node45-&gt;node85</title>
<path fill="none" stroke="black" d="M5960.73,-143.719C5941.06,-125.281 5917.71,-96.1664 5933,-72 5943.18,-55.9175 5959.58,-44.5311 5976.81,-36.5057"/>
<polygon fill="black" stroke="black" points="5978.62,-39.5385 5986.44,-32.3845 5975.87,-33.1036 5978.62,-39.5385"/>
</g>
<!-- node45&#45;&gt;node86 -->
<g id="edge72" class="edge"><title>node45-&gt;node86</title>
<path fill="none" stroke="black" d="M6045.12,-143.885C6073.25,-134.689 6106.51,-122.405 6135,-108 6172.27,-89.1564 6211.46,-61.5519 6237.56,-41.89"/>
<polygon fill="black" stroke="black" points="6239.72,-44.6468 6245.56,-35.8065 6235.48,-39.0758 6239.72,-44.6468"/>
</g>
<!-- node45&#45;&gt;node48 -->
<g id="edge66" class="edge"><title>node45-&gt;node48</title>
<path fill="none" stroke="black" d="M5995.87,-143.831C6002.2,-134.901 6009.91,-124.011 6016.74,-114.369"/>
<polygon fill="black" stroke="black" points="6019.77,-116.14 6022.7,-105.957 6014.06,-112.094 6019.77,-116.14"/>
</g>
<!-- node45&#45;&gt;node51 -->
<g id="edge64" class="edge"><title>node45-&gt;node51</title>
<path fill="none" stroke="black" d="M5839.83,-144.677C5836.86,-144.437 5833.92,-144.211 5831,-144 5435.14,-115.34 4162.73,-95.2239 3868.24,-90.8795"/>
<polygon fill="black" stroke="black" points="3868.23,-87.379 3858.18,-90.7316 3868.13,-94.3783 3868.23,-87.379"/>
</g>
<!-- node46 -->
<g id="node38" class="node"><title>node46</title>
<polygon fill="none" stroke="black" points="6658,-180 6410,-180 6410,-144 6658,-144 6658,-180"/>
<text text-anchor="middle" x="6534" y="-159.2" font-family="Times Roman,serif" font-size="12.00">com_zorba-xquery_www_modules_image_paint</text>
</g>
<!-- node46&#45;&gt;node84 -->
<g id="edge80" class="edge"><title>node46-&gt;node84</title>
<path fill="none" stroke="black" d="M6498.69,-143.939C6481.43,-134.345 6460.8,-121.713 6444,-108 6427.19,-94.2739 6430.52,-81.488 6411,-72 6316.19,-25.9198 6042.59,-49.1758 5938,-36 5929.66,-34.95 5920.98,-33.6837 5912.34,-32.3151"/>
<polygon fill="black" stroke="black" points="5912.68,-28.8247 5902.25,-30.6683 5911.55,-35.7333 5912.68,-28.8247"/>
</g>
<!-- node46&#45;&gt;node85 -->
<g id="edge82" class="edge"><title>node46-&gt;node85</title>
<path fill="none" stroke="black" d="M6516.51,-143.918C6491.62,-118.277 6448.49,-74.1965 6444,-72 6328.12,-15.3254 6283.66,-54.5123 6156,-36 6147.45,-34.7601 6138.53,-33.3992 6129.64,-31.9983"/>
<polygon fill="black" stroke="black" points="6130.07,-28.5216 6119.64,-30.4039 6128.97,-35.4344 6130.07,-28.5216"/>
</g>
<!-- node46&#45;&gt;node86 -->
<g id="edge84" class="edge"><title>node46-&gt;node86</title>
<path fill="none" stroke="black" d="M6528.37,-143.886C6521.02,-123.324 6506.19,-90.2753 6482,-72 6461.4,-56.4357 6403.18,-42.2935 6352.66,-32.3895"/>
<polygon fill="black" stroke="black" points="6353.16,-28.9203 6342.68,-30.466 6351.83,-35.794 6353.16,-28.9203"/>
</g>
<!-- node46&#45;&gt;node47 -->
<g id="edge76" class="edge"><title>node46-&gt;node47</title>
<path fill="none" stroke="black" d="M6487.32,-143.831C6454.91,-131.218 6412.46,-114.698 6383.18,-103.302"/>
<polygon fill="black" stroke="black" points="6384.38,-100.012 6373.79,-99.6472 6381.84,-106.536 6384.38,-100.012"/>
</g>
<!-- node46&#45;&gt;node48 -->
<g id="edge78" class="edge"><title>node46-&gt;node48</title>
<path fill="none" stroke="black" d="M6409.76,-144.11C6310.53,-129.821 6175.56,-110.384 6097.3,-99.1156"/>
<polygon fill="black" stroke="black" points="6097.51,-95.6094 6087.11,-97.6483 6096.51,-102.538 6097.51,-95.6094"/>
</g>
<!-- node46&#45;&gt;node51 -->
<g id="edge74" class="edge"><title>node46-&gt;node51</title>
<path fill="none" stroke="black" d="M6409.8,-144.738C6406.84,-144.473 6403.9,-144.226 6401,-144 5885.82,-103.906 4210.5,-92.3046 3868.36,-90.3285"/>
<polygon fill="black" stroke="black" points="3868.17,-86.8275 3858.15,-90.2702 3868.13,-93.8274 3868.17,-86.8275"/>
</g>
<!-- node34 -->
<g id="node39" class="node"><title>node34</title>
<polygon fill="none" stroke="black" points="2742,-180 2542,-180 2542,-144 2742,-144 2742,-180"/>
<text text-anchor="middle" x="2642" y="-159.2" font-family="Times Roman,serif" font-size="12.00">com_zorba-xquery_www_modules_os</text>
</g>
<!-- node34&#45;&gt;node51 -->
<g id="edge10" class="edge"><title>node34-&gt;node51</title>
<path fill="none" stroke="black" d="M2742.02,-145.034C2745.05,-144.665 2748.04,-144.319 2751,-144 3127.39,-103.429 3582.63,-93.1807 3745.44,-90.7292"/>
<polygon fill="black" stroke="black" points="3745.79,-94.2246 3755.74,-90.5788 3745.69,-87.2253 3745.79,-94.2246"/>
</g>
<!-- node35 -->
<g id="node40" class="node"><title>node35</title>
<polygon fill="none" stroke="black" points="2986,-180 2760,-180 2760,-144 2986,-144 2986,-180"/>
<text text-anchor="middle" x="2873" y="-159.2" font-family="Times Roman,serif" font-size="12.00">com_zorba-xquery_www_modules_process</text>
</g>
<!-- node35&#45;&gt;node51 -->
<g id="edge12" class="edge"><title>node35-&gt;node51</title>
<path fill="none" stroke="black" d="M2986.28,-144.972C2989.22,-144.632 2992.13,-144.307 2995,-144 3274.31,-114.156 3609.55,-98.0969 3745.37,-92.4119"/>
<polygon fill="black" stroke="black" points="3745.73,-95.9002 3755.58,-91.9887 3745.44,-88.9062 3745.73,-95.9002"/>
</g>
<!-- node39 -->
<g id="node41" class="node"><title>node39</title>
<polygon fill="none" stroke="black" points="3258,-180 3004,-180 3004,-144 3258,-144 3258,-180"/>
<text text-anchor="middle" x="3131" y="-159.2" font-family="Times Roman,serif" font-size="12.00">com_zorba-xquery_www_modules_security_hash</text>
</g>
<!-- node39&#45;&gt;node51 -->
<g id="edge22" class="edge"><title>node39-&gt;node51</title>
<path fill="none" stroke="black" d="M3258.03,-145.057C3261.05,-144.696 3264.04,-144.343 3267,-144 3440.32,-123.869 3645.48,-104.604 3745.7,-95.4876"/>
<polygon fill="black" stroke="black" points="3746.3,-98.9478 3755.94,-94.5582 3745.67,-91.9765 3746.3,-98.9478"/>
</g>
<!-- node40 -->
<g id="node42" class="node"><title>node40</title>
<polygon fill="none" stroke="black" points="3534,-180 3276,-180 3276,-144 3534,-144 3534,-180"/>
<text text-anchor="middle" x="3405" y="-159.2" font-family="Times Roman,serif" font-size="12.00">com_zorba-xquery_www_modules_security_hmac</text>
</g>
<!-- node40&#45;&gt;node51 -->
<g id="edge24" class="edge"><title>node40-&gt;node51</title>
<path fill="none" stroke="black" d="M3505.66,-143.971C3581.27,-130.429 3682.36,-112.324 3746.08,-100.911"/>
<polygon fill="black" stroke="black" points="3746.75,-104.346 3755.98,-99.138 3745.52,-97.4559 3746.75,-104.346"/>
</g>
<!-- node41 -->
<g id="node43" class="node"><title>node41</title>
<polygon fill="none" stroke="black" points="3804,-180 3552,-180 3552,-144 3804,-144 3804,-180"/>
<text text-anchor="middle" x="3678" y="-159.2" font-family="Times Roman,serif" font-size="12.00">com_zorba-xquery_www_modules_security_sign</text>
</g>
<!-- node41&#45;&gt;node51 -->
<g id="edge26" class="edge"><title>node41-&gt;node51</title>
<path fill="none" stroke="black" d="M3710.55,-143.831C3727.2,-134.537 3747.66,-123.121 3765.44,-113.197"/>
<polygon fill="black" stroke="black" points="3767.43,-116.093 3774.46,-108.163 3764.02,-109.98 3767.43,-116.093"/>
</g>
<!-- node36 -->
<g id="node44" class="node"><title>node36</title>
<polygon fill="none" stroke="black" points="4050,-180 3822,-180 3822,-144 4050,-144 4050,-180"/>
<text text-anchor="middle" x="3936" y="-159.2" font-family="Times Roman,serif" font-size="12.00">com_zorba-xquery_www_modules_serialize</text>
</g>
<!-- node36&#45;&gt;node51 -->
<g id="edge14" class="edge"><title>node36-&gt;node51</title>
<path fill="none" stroke="black" d="M3903.45,-143.831C3886.8,-134.537 3866.34,-123.121 3848.56,-113.197"/>
<polygon fill="black" stroke="black" points="3849.98,-109.98 3839.54,-108.163 3846.57,-116.093 3849.98,-109.98"/>
</g>
<!-- node37 -->
<g id="node45" class="node"><title>node37</title>
<polygon fill="none" stroke="black" points="4290,-180 4068,-180 4068,-144 4290,-144 4290,-180"/>
<text text-anchor="middle" x="4179" y="-159.2" font-family="Times Roman,serif" font-size="12.00">com_zorba-xquery_www_modules_system</text>
</g>
<!-- node37&#45;&gt;node51 -->
<g id="edge16" class="edge"><title>node37-&gt;node51</title>
<path fill="none" stroke="black" d="M4085.61,-143.924C4017.45,-130.733 3927.02,-113.23 3867.95,-101.796"/>
<polygon fill="black" stroke="black" points="3868.5,-98.3387 3858.02,-99.8746 3867.17,-105.211 3868.5,-98.3387"/>
</g>
<!-- node38 -->
<g id="node46" class="node"><title>node38</title>
<polygon fill="none" stroke="black" points="350,-180 132,-180 132,-144 350,-144 350,-180"/>
<text text-anchor="middle" x="241" y="-159.2" font-family="Times Roman,serif" font-size="12.00">com_zorba-xquery_www_modules_xsl-fo</text>
</g>
<!-- node38&#45;&gt;node83 -->
<g id="edge20" class="edge"><title>node38-&gt;node83</title>
<path fill="none" stroke="black" d="M227.121,-143.831C220.786,-135.539 213.162,-125.557 206.207,-116.453"/>
<polygon fill="black" stroke="black" points="208.917,-114.235 200.066,-108.413 203.355,-118.485 208.917,-114.235"/>
</g>
<!-- node38&#45;&gt;node51 -->
<g id="edge18" class="edge"><title>node38-&gt;node51</title>
<path fill="none" stroke="black" d="M350.067,-149.119C370.932,-147.071 392.62,-145.226 413,-144 1097.93,-102.793 3345.22,-91.8707 3745.67,-90.2336"/>
<polygon fill="black" stroke="black" points="3745.9,-93.7328 3755.89,-90.1922 3745.87,-86.7328 3745.9,-93.7328"/>
</g>
<!-- node74 -->
<g id="node47" class="node"><title>node74</title>
<polygon fill="none" stroke="black" points="4408.08,-167.562 4358,-180 4307.92,-167.562 4307.97,-147.438 4408.03,-147.438 4408.08,-167.562"/>
<text text-anchor="middle" x="4358" y="-159.2" font-family="Times Roman,serif" font-size="12.00">examples</text>
</g>
<!-- node74&#45;&gt;node51 -->
<g id="edge156" class="edge"><title>node74-&gt;node51</title>
<path fill="none" stroke="black" d="M4313.13,-147.364C4308.39,-146.103 4303.62,-144.949 4299,-144 4145.87,-112.526 3961.91,-98.5143 3868.27,-93.0412"/>
<polygon fill="black" stroke="black" points="3868.31,-89.5379 3858.13,-92.4613 3867.91,-96.5265 3868.31,-89.5379"/>
</g>
<!-- node48&#45;&gt;node84 -->
<g id="edge86" class="edge"><title>node48-&gt;node84</title>
<path fill="none" stroke="black" d="M6001.75,-78.2717C5971.4,-67.2354 5925.38,-50.5026 5889.53,-37.4657"/>
<polygon fill="black" stroke="black" points="5890.3,-34.0226 5879.71,-33.8944 5887.91,-40.6011 5890.3,-34.0226"/>
</g>
<!-- node48&#45;&gt;node85 -->
<g id="edge88" class="edge"><title>node48-&gt;node85</title>
<path fill="none" stroke="black" d="M6037.15,-72.5708C6038.58,-64.6139 6040.32,-54.9902 6041.93,-46.054"/>
<polygon fill="black" stroke="black" points="6045.41,-46.4834 6043.75,-36.0206 6038.53,-45.2396 6045.41,-46.4834"/>
</g>
<!-- node48&#45;&gt;node86 -->
<g id="edge90" class="edge"><title>node48-&gt;node86</title>
<path fill="none" stroke="black" d="M6069.79,-78.9864C6106.34,-67.743 6163.73,-50.0833 6207.37,-36.6548"/>
<polygon fill="black" stroke="black" points="6208.49,-39.9713 6217.02,-33.6852 6206.44,-33.2809 6208.49,-39.9713"/>
</g>
<!-- node50 -->
<g id="node50" class="node"><title>node50</title>
<polygon fill="none" stroke="black" points="3259,-36 3224.85,-18 3259,-3.55271e-15 3293.15,-18 3259,-36"/>
<text text-anchor="middle" x="3259" y="-15.2" font-family="Times Roman,serif" font-size="12.00">json</text>
</g>
<!-- node53 -->
<g id="node51" class="node"><title>node53</title>
<polygon fill="none" stroke="black" points="4533.96,-154.544 4533.96,-169.456 4502.35,-180 4457.65,-180 4426.04,-169.456 4426.04,-154.544 4457.65,-144 4502.35,-144 4533.96,-154.544"/>
<text text-anchor="middle" x="4480" y="-159.2" font-family="Times Roman,serif" font-size="12.00">libzorba_api</text>
</g>
<!-- node53&#45;&gt;node51 -->
<g id="edge120" class="edge"><title>node53-&gt;node51</title>
<path fill="none" stroke="black" d="M4440.62,-149.508C4432.85,-147.398 4424.72,-145.431 4417,-144 4218.51,-107.205 3978.89,-95.2852 3868.34,-91.5824"/>
<polygon fill="black" stroke="black" points="3868.16,-88.0748 3858.05,-91.2492 3867.93,-95.0712 3868.16,-88.0748"/>
</g>
<!-- node66 -->
<g id="node52" class="node"><title>node66</title>
<polygon fill="none" stroke="black" points="4699.8,-167.562 4626,-180 4552.2,-167.562 4552.27,-147.438 4699.73,-147.438 4699.8,-167.562"/>
<text text-anchor="middle" x="4626" y="-159.2" font-family="Times Roman,serif" font-size="12.00">parsertestdriver</text>
</g>
<!-- node66&#45;&gt;node51 -->
<g id="edge150" class="edge"><title>node66-&gt;node51</title>
<path fill="none" stroke="black" d="M4563.18,-147.405C4556.39,-146.119 4549.57,-144.948 4543,-144 4294.47,-108.115 3995.1,-95.5255 3868.4,-91.5951"/>
<polygon fill="black" stroke="black" points="3868.23,-88.0884 3858.13,-91.2838 3868.02,-95.0852 3868.23,-88.0884"/>
</g>
<!-- node58 -->
<g id="node53" class="node"><title>node58</title>
<polygon fill="none" stroke="black" points="4815.92,-167.562 4767,-180 4718.08,-167.562 4718.12,-147.438 4815.88,-147.438 4815.92,-167.562"/>
<text text-anchor="middle" x="4767" y="-159.2" font-family="Times Roman,serif" font-size="12.00">path_test</text>
</g>
<!-- node58&#45;&gt;node51 -->
<g id="edge130" class="edge"><title>node58-&gt;node51</title>
<path fill="none" stroke="black" d="M4723.89,-147.375C4718.91,-146.058 4713.87,-144.889 4709,-144 4546.99,-114.46 4044.07,-97.0534 3868.35,-91.7462"/>
<polygon fill="black" stroke="black" points="3868.34,-88.2446 3858.24,-91.4435 3868.14,-95.2414 3868.34,-88.2446"/>
</g>
<!-- node95 -->
<g id="node54" class="node"><title>node95</title>
<ellipse fill="none" stroke="black" cx="3346" cy="-18" rx="34.8827" ry="18"/>
<text text-anchor="middle" x="3346" y="-15.2" font-family="Times Roman,serif" font-size="12.00">pthread</text>
</g>
<!-- node94 -->
<g id="node55" class="node"><title>node94</title>
<ellipse fill="none" stroke="black" cx="3426" cy="-18" rx="27" ry="18"/>
<text text-anchor="middle" x="3426" y="-15.2" font-family="Times Roman,serif" font-size="12.00">rt</text>
</g>
<!-- node68 -->
<g id="node56" class="node"><title>node68</title>
<polygon fill="none" stroke="black" points="4969.99,-167.562 4902,-180 4834.01,-167.562 4834.07,-147.438 4969.93,-147.438 4969.99,-167.562"/>
<text text-anchor="middle" x="4902" y="-159.2" font-family="Times Roman,serif" font-size="12.00">sax2testdriver</text>
</g>
<!-- node68&#45;&gt;node51 -->
<g id="edge154" class="edge"><title>node68-&gt;node51</title>
<path fill="none" stroke="black" d="M4844.61,-147.415C4838.03,-146.091 4831.39,-144.909 4825,-144 4638.54,-117.472 4058.48,-97.7293 3868.17,-91.8255"/>
<polygon fill="black" stroke="black" points="3868.16,-88.3239 3858.06,-91.5137 3867.95,-95.3206 3868.16,-88.3239"/>
</g>
<!-- node62 -->
<g id="node57" class="node"><title>node62</title>
<polygon fill="none" stroke="black" points="5145.77,-167.562 5067,-180 4988.23,-167.562 4988.3,-147.438 5145.7,-147.438 5145.77,-167.562"/>
<text text-anchor="middle" x="5067" y="-159.2" font-family="Times Roman,serif" font-size="12.00">test_extern_func</text>
</g>
<!-- node62&#45;&gt;node51 -->
<g id="edge142" class="edge"><title>node62-&gt;node51</title>
<path fill="none" stroke="black" d="M5001.35,-147.409C4993.84,-146.086 4986.27,-144.906 4979,-144 4760.85,-116.831 4077.33,-97.0871 3868.33,-91.5629"/>
<polygon fill="black" stroke="black" points="3868.24,-88.0595 3858.15,-91.2953 3868.06,-95.0571 3868.24,-88.0595"/>
</g>
<!-- node60 -->
<g id="node58" class="node"><title>node60</title>
<polygon fill="none" stroke="black" points="5263.75,-167.562 5214,-180 5164.25,-167.562 5164.3,-147.438 5263.7,-147.438 5263.75,-167.562"/>
<text text-anchor="middle" x="5214" y="-159.2" font-family="Times Roman,serif" font-size="12.00">testdriver</text>
</g>
<!-- node60&#45;&gt;node51 -->
<g id="edge134" class="edge"><title>node60-&gt;node51</title>
<path fill="none" stroke="black" d="M5170.48,-147.364C5165.31,-146.03 5160.07,-144.86 5155,-144 4902.42,-101.143 4097.15,-92.0992 3868.23,-90.3749"/>
<polygon fill="black" stroke="black" points="3868.12,-86.8741 3858.09,-90.3005 3868.07,-93.8739 3868.12,-86.8741"/>
</g>
<!-- node61 -->
<g id="node59" class="node"><title>node61</title>
<polygon fill="none" stroke="black" points="7723.17,-167.562 7659,-180 7594.83,-167.562 7594.89,-147.438 7723.11,-147.438 7723.17,-167.562"/>
<text text-anchor="middle" x="7659" y="-159.2" font-family="Times Roman,serif" font-size="12.00">testdriver_mt</text>
</g>
<!-- node61&#45;&gt;node104 -->
<g id="edge138" class="edge"><title>node61-&gt;node104</title>
<path fill="none" stroke="black" d="M7659,-147.43C7659,-139.101 7659,-128.366 7659,-118.436"/>
<polygon fill="black" stroke="black" points="7662.5,-118.128 7659,-108.128 7655.5,-118.128 7662.5,-118.128"/>
</g>
<!-- node61&#45;&gt;node105 -->
<g id="edge140" class="edge"><title>node61-&gt;node105</title>
<path fill="none" stroke="black" d="M7710.4,-147.43C7749.94,-136.222 7804.85,-120.657 7847.53,-108.558"/>
<polygon fill="black" stroke="black" points="7848.6,-111.893 7857.27,-105.798 7846.69,-105.158 7848.6,-111.893"/>
</g>
<!-- node61&#45;&gt;node51 -->
<g id="edge136" class="edge"><title>node61-&gt;node51</title>
<path fill="none" stroke="black" d="M7594.76,-159.679C7488.51,-155.908 7269.47,-148.431 7084,-144 5785.51,-112.979 4197.16,-94.3444 3868.31,-90.6715"/>
<polygon fill="black" stroke="black" points="3868.08,-87.1689 3858.04,-90.5572 3868,-94.1685 3868.08,-87.1689"/>
</g>
<!-- node67 -->
<g id="node60" class="node"><title>node67</title>
<polygon fill="none" stroke="black" points="5410.17,-167.562 5346,-180 5281.83,-167.562 5281.89,-147.438 5410.11,-147.438 5410.17,-167.562"/>
<text text-anchor="middle" x="5346" y="-159.2" font-family="Times Roman,serif" font-size="12.00">updtestdriver</text>
</g>
<!-- node67&#45;&gt;node51 -->
<g id="edge152" class="edge"><title>node67-&gt;node51</title>
<path fill="none" stroke="black" d="M5292.03,-147.384C5285.65,-146.046 5279.2,-144.87 5273,-144 4995.27,-105.065 4110.48,-93.1558 3868.61,-90.5878"/>
<polygon fill="black" stroke="black" points="3868.29,-87.0844 3858.26,-90.4794 3868.22,-94.084 3868.29,-87.0844"/>
</g>
<!-- node54 -->
<g id="node61" class="node"><title>node54</title>
<polygon fill="none" stroke="black" points="7997.24,-154.544 7997.24,-169.456 7970.74,-180 7933.26,-180 7906.76,-169.456 7906.76,-154.544 7933.26,-144 7970.74,-144 7997.24,-154.544"/>
<text text-anchor="middle" x="7952" y="-159.2" font-family="Times Roman,serif" font-size="12.00">zorba_api</text>
</g>
<!-- node54&#45;&gt;node103 -->
<g id="edge124" class="edge"><title>node54-&gt;node103</title>
<path fill="none" stroke="black" d="M7982.83,-148.626C8007.94,-137.738 8043.75,-122.206 8072.2,-109.864"/>
<polygon fill="black" stroke="black" points="8073.76,-113.003 8081.54,-105.813 8070.98,-106.581 8073.76,-113.003"/>
</g>
<!-- node54&#45;&gt;node51 -->
<g id="edge122" class="edge"><title>node54-&gt;node51</title>
<path fill="none" stroke="black" d="M7906.97,-157.416C7862.55,-153.106 7792.67,-146.896 7732,-144 7330.57,-124.839 4336.4,-95.1406 3868.43,-90.5927"/>
<polygon fill="black" stroke="black" points="3868.2,-87.0904 3858.17,-90.493 3868.14,-94.09 3868.2,-87.0904"/>
</g>
<!-- node51&#45;&gt;node96 -->
<g id="edge100" class="edge"><title>node51-&gt;node96</title>
<path fill="none" stroke="black" d="M3755.79,-76.0323C3711.64,-63.993 3647.91,-46.6121 3601.71,-34.0129"/>
<polygon fill="black" stroke="black" points="3602.41,-30.5752 3591.84,-31.3207 3600.57,-37.3286 3602.41,-30.5752"/>
</g>
<!-- node51&#45;&gt;node99 -->
<g id="edge106" class="edge"><title>node51-&gt;node99</title>
<path fill="none" stroke="black" d="M3783.78,-71.8314C3772.08,-62.6729 3757.75,-51.4545 3745.2,-41.6338"/>
<polygon fill="black" stroke="black" points="3747.29,-38.8246 3737.26,-35.4177 3742.97,-44.3371 3747.29,-38.8246"/>
</g>
<!-- node51&#45;&gt;node98 -->
<g id="edge104" class="edge"><title>node51-&gt;node98</title>
<path fill="none" stroke="black" d="M3830.22,-71.8314C3841.92,-62.6729 3856.25,-51.4545 3868.8,-41.6338"/>
<polygon fill="black" stroke="black" points="3871.03,-44.3371 3876.74,-35.4177 3866.71,-38.8246 3871.03,-44.3371"/>
</g>
<!-- node51&#45;&gt;node97 -->
<g id="edge102" class="edge"><title>node51-&gt;node97</title>
<path fill="none" stroke="black" d="M3858.29,-76.3727C3903.42,-64.3834 3969.19,-46.9091 4017,-34.2061"/>
<polygon fill="black" stroke="black" points="4018.15,-37.522 4026.92,-31.5716 4016.35,-30.7567 4018.15,-37.522"/>
</g>
<!-- node51&#45;&gt;node101 -->
<g id="edge110" class="edge"><title>node51-&gt;node101</title>
<path fill="none" stroke="black" d="M3858.23,-82.8602C3927.65,-73.0471 4055.4,-54.4959 4164,-36 4171.11,-34.789 4178.51,-33.4775 4185.9,-32.1332"/>
<polygon fill="black" stroke="black" points="4186.75,-35.5367 4195.95,-30.2862 4185.48,-28.652 4186.75,-35.5367"/>
</g>
<!-- node51&#45;&gt;node100 -->
<g id="edge108" class="edge"><title>node51-&gt;node100</title>
<path fill="none" stroke="black" d="M3858.17,-86.4814C3954.12,-79.8284 4167,-63.5471 4345,-36 4353.14,-34.7398 4361.68,-33.1979 4370.16,-31.5518"/>
<polygon fill="black" stroke="black" points="4370.94,-34.9658 4380.06,-29.5823 4369.57,-28.1002 4370.94,-34.9658"/>
</g>
<!-- node51&#45;&gt;node100 -->
<g id="edge112" class="edge"><title>node51-&gt;node100</title>
<path fill="none" stroke="black" d="M3858.31,-87.1583C3956.85,-80.9785 4178.64,-64.5322 4363,-36 4368,-35.2268 4373.14,-34.3475 4378.29,-33.4032"/>
<polygon fill="black" stroke="black" points="4378.99,-36.8324 4388.16,-31.5179 4377.68,-29.9567 4378.99,-36.8324"/>
</g>
<!-- node51&#45;&gt;node50 -->
<g id="edge114" class="edge"><title>node51-&gt;node50</title>
<path fill="none" stroke="black" d="M3755.68,-86.4078C3644.99,-78.352 3386.97,-57.8315 3302,-36 3296.84,-34.6746 3291.49,-32.8411 3286.39,-30.8482"/>
<polygon fill="black" stroke="black" points="3287.59,-27.5526 3277.01,-26.9114 3284.88,-34.0075 3287.59,-27.5526"/>
</g>
<!-- node51&#45;&gt;node95 -->
<g id="edge98" class="edge"><title>node51-&gt;node95</title>
<path fill="none" stroke="black" d="M3755.79,-87.6446C3676.31,-83.0385 3518.97,-70.1096 3390,-36 3387.23,-35.268 3384.41,-34.4039 3381.59,-33.457"/>
<polygon fill="black" stroke="black" points="3382.74,-30.1496 3372.14,-29.9897 3380.32,-36.721 3382.74,-30.1496"/>
</g>
<!-- node51&#45;&gt;node94 -->
<g id="edge96" class="edge"><title>node51-&gt;node94</title>
<path fill="none" stroke="black" d="M3755.88,-86.929C3687.52,-81.7184 3563.2,-68.3559 3462,-36 3460.1,-35.3935 3458.18,-34.699 3456.27,-33.9435"/>
<polygon fill="black" stroke="black" points="3457.42,-30.6284 3446.86,-29.7839 3454.59,-37.0301 3457.42,-30.6284"/>
</g>
<!-- node55 -->
<g id="node63" class="node"><title>node55</title>
<polygon fill="none" stroke="black" points="5532.24,-167.562 5480,-180 5427.76,-167.562 5427.81,-147.438 5532.19,-147.438 5532.24,-167.562"/>
<text text-anchor="middle" x="5480" y="-159.2" font-family="Times Roman,serif" font-size="12.00">zorbacmd</text>
</g>
<!-- node55&#45;&gt;node51 -->
<g id="edge126" class="edge"><title>node55-&gt;node51</title>
<path fill="none" stroke="black" d="M5435.33,-147.419C5429.87,-146.055 5424.34,-144.863 5419,-144 5264.12,-118.971 4144.93,-96.3785 3868.57,-91.1394"/>
<polygon fill="black" stroke="black" points="3868.4,-87.6356 3858.33,-90.9459 3868.26,-94.6343 3868.4,-87.6356"/>
</g>
</g>
</svg>